# xmcd
#
# Track frame offsets:
#	150
#	16700
#	31100
#	49415
#	60695
#	75950
#	94792
#	119397
#	133425
#	150475
#	168087
#	187567
#
# Disc length: 2818 seconds
#
# Revision: 4
# Processed by: cddbd v1.4PL0 Copyright (c) Steve Scherf et al.
# Submitted via: MusicWizard 6.0.1
#
DISCID=850b000c
DTITLE=Simone, Nina - My Baby Just Cares For Me
DYEAR=1900
DGENRE=Jazz
TTITLE0=My Baby Just Cares For me
TTITLE1=Don't Smoke in Bed
TTITLE2=Mood Indigo
TTITLE3=He Needs me
TTITLE4=Love me or Leave me
TTITLE5=I Love You Porgy
TTITLE6=Good Bait
TTITLE7=Central Park Blues
TTITLE8=You'll Never Walk Alone
TTITLE9=Plain Gold Ring
TTITLE10=Little Girl Blue
TTITLE11=My Baby Just Cares For me (Special Ext. Version)
EXTD=
EXTT0=
EXTT1=
EXTT2=
EXTT3=
EXTT4=
EXTT5=
EXTT6=
EXTT7=
EXTT8=
EXTT9=
EXTT10=
EXTT11=
PLAYORDER=
